PathFileType	4	(X/Y/Z)	./resultDataOpenSim/trcMotMarkerGrf/sub06/qtm-14-08.trc
DataRate	CameraRate	NumFrames	NumMarkers	Units	OrigDataRate	OrigDataStartFrame	OrigNumFrames
250.000000	250.000000	13	24	m	250.000000	132	527
Frame#	Time	L.Toe.Tip			R.Toe.Tip			L.Ankle.Lat			R.Ankle.Lat			L.Ankle.Med			R.Ankle.Med			L.Heel			R.Heel			L.Knee.Lat			R.Knee.Lat			L.Knee.Med			R.Knee.Med			L.Thigh.Upper			R.Thigh.Upper			L.ASIS			R.ASIS			V.Sacral			L.Acromium			R.Acromium			C7			L.Elbow			R.Elbow			L.Wrist.Lat			R.Wrist.Lat
		X1	Y1	Z1	X2	Y2	Z2	X3	Y3	Z3	X4	Y4	Z4	X5	Y5	Z5	X6	Y6	Z6	X7	Y7	Z7	X8	Y8	Z8	X9	Y9	Z9	X10	Y10	Z10	X11	Y11	Z11	X12	Y12	Z12	X13	Y13	Z13	X14	Y14	Z14	X15	Y15	Z15	X16	Y16	Z16	X17	Y17	Z17	X18	Y18	Z18	X19	Y19	Z19	X20	Y20	Z20	X21	Y21	Z21	X22	Y22	Z22	X23	Y23	Z23	X24	Y24	Z24

132	0.524	-0.24909191	0.082116744	-0.079685108	-0.77948595	0.034940494	0.090031373	-0.37792253	0.087124225	-0.089336561	-0.91008954	0.077412269	0.10065824	-0.37114546	0.10585994	-0.0052456247	-0.87904013	0.095555607	0.017893044	-0.4345127	0.041749522	-0.031089747	-0.96167878	0.062957718	0.032653348	-0.4298169	0.45793995	-0.09856397	-0.75653286	0.4372327	0.14192356	-0.43974251	0.45163716	0.024806078	-0.77680968	0.436771	0.01000212	-0.61262451	0.80444732	-0.14084168	-0.67758278	0.79580811	0.20843498	-0.55197489	0.84781386	-0.085737635	-0.56837445	0.84213534	0.16222378	-0.74427318	0.9267216	0.032445451	-0.62869561	1.3349855	-0.14203288	-0.60380757	1.3162354	0.21521938	-0.68901007	1.3633318	0.043188054	-0.74240213	1.041324	-0.19486053	-0.58572979	1.0107293	0.32333757	-0.6463271	0.81880695	-0.23481098	-0.35622389	0.91654244	0.30553143
133	0.528	-0.23151179	0.085644697	-0.078413614	-0.77942622	0.034908958	0.090009872	-0.36058516	0.087872914	-0.088810169	-0.90967066	0.078088465	0.10079176	-0.35462364	0.10687207	-0.0049164298	-0.87856392	0.095937486	0.017941878	-0.41646887	0.04144548	-0.030403295	-0.96143871	0.063993005	0.032847576	-0.42339575	0.45618151	-0.09782171	-0.75294727	0.43652173	0.14183035	-0.4333847	0.44976059	0.025806349	-0.77306395	0.43617014	0.010056922	-0.60566947	0.80257874	-0.1408732	-0.67439421	0.79602385	0.21101208	-0.54515665	0.8459684	-0.085776033	-0.56219148	0.84053796	0.1622461	-0.73811373	0.92495469	0.031294642	-0.62255887	1.3333545	-0.1421753	-0.59788225	1.3146703	0.21508061	-0.68270309	1.3616761	0.042941596	-0.73698677	1.0402122	-0.19472223	-0.57714564	1.0095906	0.32343659	-0.64275133	0.81702263	-0.2352299	-0.34683915	0.9175672	0.30465093
134	0.532	-0.21451126	0.089398681	-0.07719119	-0.77936148	0.034888899	0.089989578	-0.34377208	0.088811856	-0.088330001	-0.90920444	0.078819867	0.10094958	-0.33856961	0.10806517	-0.0045155962	-0.87810482	0.09635601	0.018044325	-0.39886758	0.041264175	-0.029962379	-0.9611925	0.065085419	0.033115269	-0.41690878	0.45438031	-0.097049937	-0.74929661	0.43578792	0.14176719	-0.42693978	0.44785718	0.026855345	-0.76919923	0.43554874	0.010115448	-0.59859531	0.80068167	-0.14089539	-0.67046362	0.79556373	0.21217706	-0.53825307	0.84409822	-0.08582108	-0.55595474	0.83890384	0.16225639	-0.73185313	0.92315359	0.0300898	-0.61639194	1.331701	-0.14234139	-0.59202903	1.3130592	0.21493187	-0.67656976	1.3600467	0.042724673	-0.73143233	1.0390337	-0.19456536	-0.56859033	1.0084299	0.32349851	-0.63925018	0.81523288	-0.2357218	-0.33746819	0.91851935	0.30373106
135	0.536	-0.19814287	0.093322149	-0.076023683	-0.77929675	0.034869043	0.089970112	-0.32754875	0.089910477	-0.087886784	-0.90864626	0.079603154	0.10113127	-0.32307903	0.10936483	-0.0040531307	-0.87765502	0.096816126	0.018194684	-0.38180224	0.04114593	-0.029729182	-0.96096143	0.066229453	0.03347016	-0.41031488	0.45256633	-0.096239843	-0.74549603	0.43503391	0.14176307	-0.42040436	0.44594889	0.027945669	-0.76520023	0.43490791	0.010161677	-0.5915369	0.79875548	-0.14095279	-0.6654578	0.79444638	0.2121481	-0.53124929	0.84221487	-0.085891457	-0.54965606	0.83723333	0.16224976	-0.72511078	0.92123324	0.028879876	-0.61019173	1.3300254	-0.14253668	-0.58621854	1.3114137	0.21477287	-0.67056918	1.3584407	0.042525849	-0.72577129	1.0378086	-0.19440657	-0.56007687	1.0072505	0.32353415	-0.63573912	0.81341915	-0.23625896	-0.32821215	0.91940626	0.30281578
136	0.54	-0.18243203	0.097326066	-0.074890424	-0.77923561	0.03484661	0.089953876	-0.31192645	0.091150359	-0.087450643	-0.90796311	0.080434599	0.10133873	-0.30819691	0.11070184	-0.0035474201	-0.87717367	0.097324547	0.018364319	-0.36525441	0.041057	-0.029730126	-0.96075432	0.067421774	0.033906206	-0.4035792	0.45078359	-0.095383731	-0.7415361	0.43427011	0.14180777	-0.41379781	0.4440708	0.029075578	-0.76107495	0.43425678	0.010195773	-0.58452284	0.79679573	-0.14105802	-0.65966407	0.79297555	0.21154704	-0.52413731	0.84032966	-0.085988947	-0.54329028	0.83553239	0.16222058	-0.71744593	0.91914142	0.027887013	-0.60395544	1.3283304	-0.14275823	-0.58036069	1.3097556	0.2145965	-0.66456899	1.3568308	0.042319533	-0.72003475	1.0365517	-0.19426355	-0.55161934	1.006053	0.32354184	-0.63210298	0.81155769	-0.23678339	-0.31911435	0.92022611	0.30192062
137	0.544	-0.16738937	0.10131317	-0.073777447	-0.77917804	0.034823418	0.089942249	-0.29688821	0.092507357	-0.086977413	-0.9072015	0.081307082	0.10158405	-0.29391096	0.11202185	-0.0030063621	-0.87662939	0.097885059	0.018540008	-0.34914536	0.040956245	-0.030034955	-0.96053029	0.068675346	0.034366531	-0.39669336	0.44907188	-0.094481213	-0.7374422	0.4335084	0.1418916	-0.40714537	0.44226822	0.030236645	-0.75683377	0.43360008	0.010228336	-0.57750377	0.79480645	-0.14119117	-0.65348742	0.7914046	0.21082147	-0.5169232	0.83844584	-0.086097001	-0.53686496	0.83381475	0.16217204	-0.70891099	0.91699229	0.027464593	-0.59768266	1.3266212	-0.14299656	-0.57438755	1.3081016	0.21439881	-0.65848536	1.3552007	0.042089474	-0.71423862	1.0352679	-0.19414845	-0.54322744	1.0048359	0.32350493	-0.62826702	0.80966656	-0.23725952	-0.3101501	0.92097045	0.30102778
138	0.548	-0.1530171	0.10519659	-0.072691806	-0.77911931	0.034800869	0.089935317	-0.28243224	0.093927171	-0.086430713	-0.90648793	0.082210398	0.10188641	-0.28019309	0.11328211	-0.0024123721	-0.87602766	0.098494024	0.018738911	-0.3335034	0.040827382	-0.030566764	-0.96022155	0.070019677	0.034786559	-0.3896832	0.44744706	-0.093543256	-0.7332158	0.43275148	0.14202671	-0.400464	0.44058162	0.031409487	-0.75247874	0.4329309	0.010269439	-0.57042297	0.79280433	-0.14133313	-0.64721056	0.78984753	0.21014483	-0.50964155	0.83656908	-0.086197733	-0.5303947	0.83209146	0.1621154	-0.70028449	0.91503061	0.027708524	-0.59137394	1.3249028	-0.14324347	-0.5683086	1.3064522	0.21418301	-0.65232051	1.3535546	0.041832424	-0.70838785	1.0339583	-0.19406642	-0.53490009	1.0035965	0.32340519	-0.62426428	0.80778596	-0.2377062	-0.30126094	0.9216294	0.30011114
139	0.552	-0.13930549	0.10889469	-0.071634216	-0.7790521	0.034778339	0.089933277	-0.26857467	0.095327782	-0.085791822	-0.90592043	0.083144217	0.10225573	-0.26704084	0.11444173	-0.0017291144	-0.87538892	0.099146159	0.018982405	-0.31851563	0.040723197	-0.031026755	-0.95983317	0.071482685	0.035220244	-0.38259224	0.44590877	-0.092594037	-0.72885561	0.43199389	0.1422147	-0.39376087	0.43903113	0.032572236	-0.74800932	0.43223817	0.010325529	-0.56324598	0.79080495	-0.14148273	-0.64095717	0.78832408	0.20953092	-0.50235777	0.83471517	-0.086279139	-0.52388132	0.8303609	0.16205904	-0.69241184	0.91338536	0.028175902	-0.58502518	1.323176	-0.14349636	-0.56216762	1.304799	0.21395133	-0.6461271	1.3519179	0.04154971	-0.70248355	1.0326218	-0.19401749	-0.52663068	1.0023321	0.32323831	-0.62020708	0.80593277	-0.23817028	-0.29241364	0.9222054	0.29916502
140	0.556	-0.12623991	0.11231209	-0.070582691	-0.77897077	0.034754989	0.089935543	-0.25533652	0.096626297	-0.085051308	-0.90546277	0.084125447	0.10268529	-0.25447269	0.11545889	-0.00093146868	-0.87472224	0.099846552	0.019277709	-0.30435969	0.040703494	-0.031123892	-0.95947142	0.073075092	0.035853492	-0.37543218	0.4444664	-0.09165886	-0.72439841	0.43122836	0.14242748	-0.38703474	0.43761186	0.033706998	-0.7434253	0.43151325	0.010404009	-0.55597641	0.78881506	-0.141646	-0.63474435	0.78681955	0.20894674	-0.49511983	0.8328974	-0.08633235	-0.51731287	0.82861595	0.16200276	-0.68547388	0.91196147	0.028285073	-0.57862604	1.3214381	-0.14375774	-0.55598874	1.3031364	0.21370426	-0.63995524	1.3503287	0.041235883	-0.69652726	1.0312559	-0.19399601	-0.51841486	1.0010391	0.32300987	-0.61615608	0.80409814	-0.238668	-0.28363448	0.9227175	0.29820993
141	0.56	-0.1138156	0.11534175	-0.069510749	-0.77887375	0.034731819	0.08994011	-0.24273656	0.097757448	-0.084204417	-0.90496611	0.08517653	0.10316249	-0.2425091	0.11629644	-3.010637e-05	-0.87402465	0.10061107	0.01962265	-0.29106369	0.040751013	-0.030793714	-0.9591934	0.074788062	0.036767581	-0.36811761	0.44315193	-0.090739564	-0.71988083	0.4304481	0.14263964	-0.38027804	0.43630089	0.034799523	-0.73872498	0.43074951	0.010513542	-0.54865302	0.78684389	-0.14181809	-0.62855067	0.78531849	0.20836662	-0.48791405	0.8311155	-0.086354844	-0.51068682	0.82685866	0.16194757	-0.67909313	0.91059799	0.027871532	-0.57217336	1.3196912	-0.14403564	-0.5497735	1.3014665	0.21344201	-0.63381212	1.3488074	0.040883851	-0.69051874	1.0298548	-0.19398961	-0.51025278	0.99971478	0.32272357	-0.61207807	0.80227661	-0.23918294	-0.27496509	0.92317761	0.29726424
142	0.564	-0.10204055	0.11789435	-0.06841377	-0.77876236	0.034712122	0.089945169	-0.23078691	0.098673103	-0.083253468	-0.90430112	0.086307358	0.10367971	-0.23116298	0.11693215	0.00094117787	-0.87328895	0.10144972	0.020011926	-0.27856643	0.040787764	-0.030135075	-0.95888608	0.076601495	0.037765312	-0.36048766	0.44200186	-0.089814102	-0.7152901	0.42965298	0.14284699	-0.37348354	0.43506615	0.035837984	-0.73390476	0.42994642	0.01065404	-0.54130864	0.78491099	-0.14198243	-0.62235562	0.78381357	0.20778181	-0.48069359	0.82936214	-0.086355758	-0.50401676	0.82510308	0.16190686	-0.67285951	0.90921243	0.027146852	-0.56568306	1.3179487	-0.14434113	-0.54351836	1.2997971	0.21316237	-0.62765466	1.347331	0.040501939	-0.68445136	1.0284099	-0.19398587	-0.50215551	0.99836465	0.32238537	-0.60790576	0.80048603	-0.2397051	-0.2664158	0.92357673	0.29632559
143	0.568	-0.090924886	0.11991882	-0.067312524	-0.77863802	0.034700316	0.089951355	-0.2194896	0.09933351	-0.082204565	-0.90345012	0.087508005	0.10423009	-0.22041209	0.11737107	0.0019703725	-0.87250738	0.10235828	0.020440764	-0.26681603	0.040732173	-0.029251566	-0.95840125	0.078503117	0.038605995	-0.3524835	0.44101781	-0.088880365	-0.71059242	0.4288513	0.14304954	-0.36664762	0.4338743	0.036812797	-0.72895973	0.42911341	0.010812402	-0.53392383	0.78304017	-0.1421285	-0.61615286	0.78230434	0.20719315	-0.4734225	0.82763313	-0.086348112	-0.49730981	0.8233633	0.16189869	-0.66658198	0.90779654	0.026345473	-0.55917684	1.3162259	-0.14468051	-0.53722229	1.2981391	0.21286315	-0.62143042	1.3458574	0.040111236	-0.67831536	1.0269235	-0.19398248	-0.49414313	0.99700262	0.32200742	-0.60355973	0.79875328	-0.24022818	-0.25797968	0.92390211	0.29538547
144	0.572	-0.080468795	0.12139037	-0.066218709	-0.77849894	0.034700781	0.089963905	-0.20883618	0.099699745	-0.081063718	-0.90246403	0.088760463	0.10480048	-0.21018042	0.1176399	0.0030929006	-0.87167444	0.10333237	0.02091249	-0.25578863	0.040520454	-0.028195955	-0.95773403	0.080501936	0.039300768	-0.34426207	0.4401507	-0.087978529	-0.70577107	0.4280488	0.14325021	-0.3597627	0.43270156	0.037717334	-0.72388639	0.42826244	0.010975874	-0.52644161	0.78125016	-0.1422596	-0.60995579	0.78079657	0.20660366	-0.46608335	0.82593129	-0.086334342	-0.49055675	0.8216451	0.16192158	-0.66024787	0.9063684	0.025572928	-0.55266286	1.3145285	-0.14505052	-0.53088964	1.2965031	0.21254647	-0.6151251	1.3443647	0.039723696	-0.67210647	1.0254218	-0.1939906	-0.48622214	0.99563791	0.32159291	-0.59897587	0.79707479	-0.24073286	-0.24965066	0.92415073	0.29444228
